<?xml version="1.0" encoding="UTF-8" standalone="no"?>
<!DOCTYPE svg PUBLIC "-//W3C//DTD SVG 1.1//EN" "http://www.w3.org/Graphics/SVG/1.1/DTD/svg11.dtd">
<svg width="100%" height="100%" viewBox="0 0 400 260" version="1.1" xmlns="http://www.w3.org/2000/svg" xmlns:xlink="http://www.w3.org/1999/xlink" xml:space="preserve" xmlns:serif="http://www.serif.com/" style="fill-rule:evenodd;clip-rule:evenodd;stroke-linecap:round;stroke-linejoin:round;stroke-miterlimit:1.5;">
    <g transform="matrix(1,0,0,1,-1179.42,-1408.52)">
        <g id="icon" transform="matrix(0.380952,0,0,0.433333,1179.42,1408.52)">
            <g id="dmeterfields-sigil-curve" transform="matrix(2.16119,0,0,1.89995,-3177.13,-2916.81)">
                <path d="M1500.41,1713.99C1494.77,1712.42 1491.48,1716.97 1492.03,1723.86C1492.43,1728.91 1489.05,1732.34 1489.05,1732.34C1489.05,1732.34 1508.8,1729.59 1510.38,1699.25C1511.95,1668.92 1509.23,1663.69 1513.17,1639.57C1517.86,1610.89 1534.64,1580.84 1578,1580.28C1617.47,1579.76 1639.29,1614.56 1638.36,1642.23C1636.34,1702.52 1609.33,1737.02 1611.26,1771.28C1612.43,1791.98 1641.44,1829.75 1625.81,1829.75C1605.83,1829.75 1582.75,1781.98 1579.4,1773.2C1575.08,1761.86 1572.62,1723.96 1565.45,1708.37C1558.46,1693.18 1525.74,1677.19 1526.53,1643.31C1527.32,1609.43 1552.55,1590.31 1577.93,1590.67C1605.2,1591.06 1625.95,1610.87 1624.77,1642.39C1623.59,1673.91 1615.25,1699.97 1596.39,1727.73C1578.66,1753.81 1557.78,1762.57 1548.23,1774.81C1539.26,1786.3 1530.69,1829.19 1518.97,1829.19C1507.25,1829.19 1512.63,1781.71 1522.98,1759.18C1533.68,1735.91 1557.6,1712.82 1599.15,1715.46C1638.98,1718 1649.4,1734.7 1675.85,1734.7C1700.27,1734.7 1729.1,1717.22 1757.12,1723.28C1779.62,1728.15 1782.24,1760 1786.43,1780.39C1790.18,1798.6 1796.84,1829.75 1810.33,1829.75C1821.83,1829.75 1813.43,1793.5 1811.85,1780.11C1810.28,1766.72 1816.43,1758.36 1827.53,1755.95C1839.7,1753.31 1847.72,1761.56 1853.17,1768.61C1858.62,1775.66 1857.28,1786.95 1865.41,1794.59C1874.11,1802.75 1886.9,1805.02 1892.2,1809.95C1895.22,1812.76 1891.79,1817.19 1897.57,1823.6C1902.97,1829.6 1911.36,1830.36 1917.93,1828.97C1931.88,1826.04 1929.97,1821.39 1929.5,1809.75C1928.63,1788.63 1936.53,1771.48 1936.94,1758.35C1937.36,1745.21 1929.93,1736.53 1928.99,1731.12C1928.06,1725.72 1928.68,1719.29 1924.67,1715.72C1920.65,1712.16 1917.19,1717.34 1911.26,1715.63C1899.22,1712.15 1860.6,1655.69 1845.23,1629.66C1833.99,1610.62 1837.56,1596.78 1826.67,1579.63C1815.78,1562.49 1795.35,1554.74 1781.83,1556.78C1768.32,1558.81 1762.58,1569.5 1766.87,1579.34C1775.87,1599.98 1802.98,1599.39 1802.56,1592.57C1802.2,1586.75 1776.67,1584.97 1754.62,1602.34C1735.98,1617.03 1729.29,1644.38 1730.1,1662.94C1731.25,1689.03 1736.58,1698.79 1735.68,1710.05C1733.39,1738.84 1725.49,1766.08 1725.94,1776.49C1726.58,1790.83 1730.1,1829.75 1744.47,1829.75C1754.98,1829.75 1747.14,1795.1 1750,1779.39C1752.8,1764.02 1768.65,1725.35 1803.92,1710.1C1850.31,1690.04 1895.27,1708.01 1904.96,1733.67C1910.64,1748.7 1896.64,1756.66 1885.87,1759.75C1875.1,1762.85 1854.83,1763.9 1853.93,1756.67C1853.03,1749.44 1865.41,1744.11 1876.42,1742.27C1887.44,1740.43 1898.05,1742.81 1904.84,1745.07C1909.46,1746.61 1913.96,1750 1916.6,1752.22C1919.91,1755.01 1919.93,1757.85 1919.44,1759.63C1918.61,1762.64 1915.41,1763.97 1912.19,1762.24C1909.41,1760.74 1909.52,1756.27 1912.4,1755.2" style="fill:none;stroke:white;stroke-width:2.73px;"/>
            </g>
        </g>
    </g>
</svg>
